<svg class="icon" viewBox="0 0 1024 1024" version="1.1" xmlns="http://www.w3.org/2000/svg"
     width="40" height="40">
    <path d="M832 192c35.328 0 64 28.672 64 64v160c0 35.328 28.672 64 64 64v64c-35.328 0-64 28.672-64 64V768c0 35.328-28.672 64-64 64h-96v-64H832V608a127.232 127.232 0 0 1 44.224-96A127.232 127.232 0 0 1 832 416V256h-96V192zM288 192v64H192v160A127.232 127.232 0 0 1 147.776 512c27.968 24.064 44.16 59.072 44.224 96V768h96v64H192c-35.328 0-64-28.672-64-64V608c0-35.328-28.672-64-64-64v-64c35.328 0 64-28.672 64-64V256c0-35.328 28.672-64 64-64h96z m256 96L516.608 384h64L608 288h64L644.608 384H704v64H626.304l-36.608 128H672v64H571.392L544 736h-64l27.392-96h-64L416 736h-64l27.392-96H320V576h77.76l36.544-128H352V384h100.608L480 288h64zM562.304 448h-64l-36.544 128h64l36.544-128z"
          fill="#FF9500"/>
</svg>